<?xml version="1.0" standalone="no"?>
<!DOCTYPE svg PUBLIC "-//W3C//DTD SVG 20010904//EN"
 "http://www.w3.org/TR/2001/REC-SVG-20010904/DTD/svg10.dtd">
<svg version="1.0" xmlns="http://www.w3.org/2000/svg"
 width="512.000000pt" height="512.000000pt" viewBox="0 0 512.000000 512.000000"
 preserveAspectRatio="xMidYMid meet">
<metadata>
Created by potrace 1.11, written by Peter Selinger 2001-2013
</metadata>
<g transform="translate(0.000000,512.000000) scale(0.100000,-0.100000)"
fill="#000000" stroke="none">
<path d="M2510 4894 c0 -5 -30 -10 -68 -10 -70 -2 -182 -11 -223 -19 -13 -3
-37 -7 -54 -10 -30 -5 -113 -22 -150 -30 -11 -2 -65 -17 -120 -33 -489 -143
-940 -466 -1235 -882 -101 -144 -190 -303 -250 -450 -12 -30 -28 -68 -35 -85
-36 -82 -100 -337 -120 -475 -4 -25 -8 -56 -10 -70 -3 -14 -5 -43 -6 -65 -1
-22 -6 -45 -11 -52 -5 -7 -5 -14 2 -18 5 -3 10 -12 10 -18 0 -7 -4 -6 -10 3
-14 22 -13 -5 1 -32 6 -11 7 -18 2 -15 -5 3 -10 -33 -10 -84 -1 -49 2 -87 6
-85 3 2 7 -19 8 -47 1 -62 11 -162 18 -197 3 -14 8 -41 11 -60 4 -19 7 -39 9
-45 1 -5 5 -28 9 -50 27 -141 103 -359 187 -530 42 -89 188 -330 207 -345 4
-3 18 -21 32 -40 25 -36 33 -45 113 -137 60 -69 198 -200 277 -264 143 -114
430 -285 570 -338 86 -32 265 -92 291 -96 15 -3 39 -9 53 -15 15 -5 26 -8 26
-5 0 2 15 -1 33 -6 17 -5 61 -14 97 -19 36 -5 76 -12 90 -15 14 -3 61 -7 105
-10 44 -2 80 -5 80 -6 0 -1 53 -2 118 -3 64 -1 117 2 117 6 0 5 8 4 19 -1 10
-6 21 -8 24 -5 3 3 25 8 49 10 48 5 182 24 213 30 11 2 31 6 45 9 28 5 40 8
127 29 105 26 312 105 433 165 111 55 286 159 312 184 7 7 29 23 48 37 109 74
318 276 422 406 137 171 271 399 346 589 36 90 86 241 98 295 2 11 6 29 9 41
2 11 6 28 9 37 3 9 8 35 11 57 7 40 8 47 19 120 11 72 18 159 20 225 0 36 6
68 11 72 6 5 5 8 -4 8 -10 0 -11 3 -2 13 6 8 8 17 4 21 -4 3 -8 32 -9 64 -2
67 -13 199 -18 227 -2 11 -7 40 -11 65 -4 25 -9 54 -11 65 -2 11 -7 34 -10 50
-2 17 -10 48 -16 70 -6 22 -13 47 -14 56 -17 87 -126 363 -186 469 -17 30 -40
71 -51 90 -34 61 -117 182 -186 270 -67 87 -265 290 -330 338 -20 15 -45 35
-56 46 -48 44 -291 197 -396 248 -109 54 -257 117 -289 123 -8 2 -43 12 -78
24 -82 27 -271 68 -347 76 -33 4 -71 8 -85 11 -14 2 -65 6 -115 9 -49 3 -105
7 -123 10 -25 4 -31 2 -26 -7 5 -9 3 -9 -9 1 -9 7 -17 10 -17 5z"/>
</g>
</svg>
